<svg width="59" height="61" viewBox="0 0 59 61" fill="none" xmlns="http://www.w3.org/2000/svg">
<path d="M18.1424 12.4379L19.9102 15.076C19.9959 15.2039 20.1064 15.3135 20.2351 15.3983C20.3639 15.4832 20.5084 15.5417 20.6602 15.5704C20.8119 15.599 20.9679 15.5973 21.119 15.5652C21.2701 15.5332 21.4132 15.4715 21.5401 15.3838C23.5366 14.0156 28.8787 11.1577 39.147 10.7671C39.147 10.7671 30.4748 5.734 18.418 11.4577C18.3302 11.4988 18.2522 11.5582 18.1896 11.632C18.1269 11.7057 18.0809 11.7921 18.0548 11.8851C18.0286 11.9781 18.0229 12.0756 18.038 12.171C18.0532 12.2664 18.0888 12.3574 18.1424 12.4379Z" fill="#231F20"/>
<path d="M42.4147 51.6761L40.647 49.038C40.5611 48.91 40.4503 48.8004 40.3213 48.7155C40.1923 48.6306 40.0476 48.5721 39.8956 48.5435C39.7437 48.5148 39.5875 48.5166 39.4362 48.5486C39.2849 48.5807 39.1415 48.6424 39.0145 48.7302C37.0206 50.0984 31.6785 52.9564 21.4102 53.3469C21.4102 53.3469 30.0823 58.38 42.1392 52.6563C42.2267 52.6149 42.3043 52.5553 42.3667 52.4815C42.4292 52.4077 42.475 52.3215 42.5011 52.2286C42.5272 52.1357 42.533 52.0383 42.5181 51.943C42.5032 51.8477 42.468 51.7567 42.4147 51.6761Z" fill="#231F20"/>
<path d="M8.05871 32.0324C12.1186 27.8808 16.6367 24.1986 21.5271 21.0558C29.2687 16.1701 39.4954 13.2397 39.4954 13.2397C39.4954 13.2397 44.3462 12.1457 47.8712 15.6528C51.3962 19.16 53.0132 24.7905 53.0132 24.7905C53.0132 24.7905 53.9932 31.0548 49.0254 34.3886C44.0576 37.7225 40.764 43.6996 21.1242 50.1941C21.1242 50.1941 15.0594 51.4304 12.4 48.3138C9.74064 45.1972 4.08136 37.7794 8.05871 32.0324Z" fill="#231F20"/>
<path d="M27.4177 32.9247L29.266 26.8674C29.2694 26.8554 29.2761 26.8447 29.2854 26.8364C29.2948 26.8282 29.3063 26.8227 29.3186 26.8208C29.331 26.8189 29.3436 26.8206 29.355 26.8256C29.3665 26.8307 29.3762 26.8389 29.383 26.8493L29.7469 27.3666C29.753 27.3741 29.7608 27.3802 29.7695 27.3844C29.7783 27.3886 29.7879 27.3908 29.7976 27.3908C29.8074 27.3908 29.817 27.3886 29.8257 27.3844C29.8345 27.3802 29.8422 27.3741 29.8483 27.3666L29.9939 27.2062C30.0015 27.1985 30.0109 27.1927 30.0212 27.1894C30.0315 27.1861 30.0425 27.1852 30.0532 27.187C30.0639 27.1888 30.0741 27.1931 30.0827 27.1996C30.0914 27.2061 30.0984 27.2146 30.1031 27.2243L32.6611 33.173C32.6664 33.184 32.6747 33.1932 32.685 33.1996C32.6954 33.2061 32.7074 33.2095 32.7196 33.2095C32.7318 33.2095 32.7437 33.2061 32.7541 33.1996C32.7644 33.1932 32.7727 33.184 32.7781 33.173L33.1368 32.5833C33.1426 32.5758 33.1501 32.5697 33.1587 32.5655C33.1672 32.5614 33.1766 32.5592 33.1862 32.5592C33.1957 32.5592 33.2051 32.5614 33.2137 32.5655C33.2223 32.5697 33.2297 32.5758 33.2356 32.5833L33.3942 32.7282C33.4033 32.7369 33.4148 32.7428 33.4273 32.7451C33.4398 32.7474 33.4526 32.746 33.4643 32.7411L33.5943 32.6868C33.6049 32.6821 33.6165 32.6803 33.6279 32.6815C33.6394 32.6828 33.6503 32.6871 33.6596 32.6939C33.6689 32.7008 33.6761 32.7099 33.6806 32.7205C33.6852 32.7311 33.6868 32.7426 33.6853 32.754L33.0718 38.2786C33.0708 38.2904 33.0665 38.3017 33.0595 38.3112C33.0525 38.3208 33.0429 38.3282 33.0319 38.3328C33.0209 38.3373 33.0089 38.3387 32.9971 38.3369C32.9854 38.3351 32.9743 38.3301 32.9652 38.3225L32.6611 38.0639C32.6553 38.0581 32.6484 38.0535 32.6408 38.0504C32.6332 38.0472 32.6251 38.0456 32.6169 38.0456C32.6087 38.0456 32.6005 38.0472 32.593 38.0504C32.5854 38.0535 32.5785 38.0581 32.5727 38.0639L32.4531 38.1906C32.4453 38.1982 32.4358 38.2039 32.4253 38.207C32.4149 38.2102 32.4038 38.2108 32.3931 38.2087C32.3823 38.2067 32.3723 38.2021 32.3637 38.1953C32.3551 38.1886 32.3484 38.1799 32.3439 38.1699L29.6508 31.2591C29.6465 31.2481 29.6392 31.2385 29.6299 31.2313C29.6205 31.2241 29.6093 31.2195 29.5975 31.2182C29.5857 31.2169 29.5738 31.2188 29.563 31.2237C29.5522 31.2286 29.543 31.2364 29.5364 31.2462L28.1872 33.2377C28.1805 33.2474 28.1713 33.2552 28.1606 33.2601C28.1498 33.2651 28.1379 33.267 28.1261 33.2656C28.1143 33.2643 28.1031 33.2598 28.0937 33.2526C28.0843 33.2454 28.0771 33.2358 28.0728 33.2248L27.9116 32.8135C27.9079 32.8047 27.9023 32.7969 27.8951 32.7905C27.888 32.7841 27.8795 32.7794 27.8703 32.7767C27.8611 32.774 27.8514 32.7733 27.8419 32.7748C27.8325 32.7762 27.8234 32.7797 27.8155 32.7851L27.5165 32.979C27.5067 32.985 27.4955 32.9882 27.4841 32.9885C27.4726 32.9887 27.4613 32.9859 27.4513 32.9804C27.4412 32.9749 27.4329 32.9668 27.427 32.9571C27.4211 32.9473 27.4179 32.9361 27.4177 32.9247Z" fill="white"/>
<path d="M18.0748 41.2917C20.7883 41.2917 22.988 39.1031 22.988 36.4034C22.988 33.7037 20.7883 31.5151 18.0748 31.5151C15.3613 31.5151 13.1616 33.7037 13.1616 36.4034C13.1616 39.1031 15.3613 41.2917 18.0748 41.2917Z" fill="white"/>
<path d="M39.3628 28.5098C42.0763 28.5098 44.276 26.3212 44.276 23.6215C44.276 20.9218 42.0763 18.7332 39.3628 18.7332C36.6493 18.7332 34.4496 20.9218 34.4496 23.6215C34.4496 26.3212 36.6493 28.5098 39.3628 28.5098Z" fill="white"/>
</svg>
